<svg width="25" height="24" viewBox="0 0 25 24" fill="none" xmlns="http://www.w3.org/2000/svg">
<path d="M21.5 24H7.5C6.70435 24 5.94129 23.6839 5.37868 23.1213C4.81607 22.5587 4.5 21.7956 4.5 21V7C4.5 6.20435 4.81607 5.44129 5.37868 4.87868C5.94129 4.31607 6.70435 4 7.5 4H21.5C22.2956 4 23.0587 4.31607 23.6213 4.87868C24.1839 5.44129 24.5 6.20435 24.5 7V21C24.5 21.7956 24.1839 22.5587 23.6213 23.1213C23.0587 23.6839 22.2956 24 21.5 24ZM7.5 6C7.23478 6 6.98043 6.10536 6.79289 6.29289C6.60536 6.48043 6.5 6.73478 6.5 7V21C6.5 21.2652 6.60536 21.5196 6.79289 21.7071C6.98043 21.8946 7.23478 22 7.5 22H21.5C21.7652 22 22.0196 21.8946 22.2071 21.7071C22.3946 21.5196 22.5 21.2652 22.5 21V7C22.5 6.73478 22.3946 6.48043 22.2071 6.29289C22.0196 6.10536 21.7652 6 21.5 6H7.5Z" fill="#49578A"/>
<path d="M5.5 20H3.5C2.70435 20 1.94129 19.6839 1.37868 19.1213C0.816071 18.5587 0.5 17.7956 0.5 17V3C0.5 2.20435 0.816071 1.44129 1.37868 0.87868C1.94129 0.316071 2.70435 0 3.5 0H17.5C18.2956 0 19.0587 0.316071 19.6213 0.87868C20.1839 1.44129 20.5 2.20435 20.5 3V5C20.5 5.26522 20.3946 5.51957 20.2071 5.70711C20.0196 5.89464 19.7652 6 19.5 6C19.2348 6 18.9804 5.89464 18.7929 5.70711C18.6054 5.51957 18.5 5.26522 18.5 5V3C18.5 2.73478 18.3946 2.48043 18.2071 2.29289C18.0196 2.10536 17.7652 2 17.5 2H3.5C3.23478 2 2.98043 2.10536 2.79289 2.29289C2.60536 2.48043 2.5 2.73478 2.5 3V17C2.5 17.2652 2.60536 17.5196 2.79289 17.7071C2.98043 17.8946 3.23478 18 3.5 18H5.5C5.76522 18 6.01957 18.1054 6.20711 18.2929C6.39464 18.4804 6.5 18.7348 6.5 19C6.5 19.2652 6.39464 19.5196 6.20711 19.7071C6.01957 19.8946 5.76522 20 5.5 20Z" fill="#49578A"/>
<path d="M11.4998 20C10.9068 19.9995 10.3273 19.8233 9.83447 19.4936C9.34161 19.1639 8.9575 18.6956 8.73066 18.1477C8.50381 17.5999 8.44441 16.9971 8.55994 16.4155C8.67548 15.8339 8.96078 15.2996 9.3798 14.88L10.3798 13.88C10.9509 13.3348 11.7102 13.0305 12.4998 13.0305C13.2894 13.0305 14.0487 13.3348 14.6198 13.88C15.1816 14.4425 15.4972 15.205 15.4972 16C15.4972 16.795 15.1816 17.5575 14.6198 18.12L13.6198 19.12C13.0577 19.6828 12.2952 19.9993 11.4998 20ZM12.4998 15C12.3682 14.9993 12.2377 15.0245 12.1159 15.0743C11.9941 15.124 11.8832 15.1974 11.7898 15.29L10.7898 16.29C10.6036 16.4774 10.499 16.7309 10.499 16.995C10.499 17.2592 10.6036 17.5127 10.7898 17.7C10.9772 17.8863 11.2306 17.9908 11.4948 17.9908C11.759 17.9908 12.0124 17.8863 12.1998 17.7L13.1998 16.7C13.3368 16.5603 13.4299 16.3834 13.4673 16.1912C13.5047 15.9991 13.485 15.8002 13.4104 15.6192C13.3359 15.4382 13.2099 15.283 13.048 15.173C12.8861 15.0629 12.6955 15.0028 12.4998 15Z" fill="#49578A"/>
<path d="M16.4998 15C15.9068 14.9995 15.3273 14.8233 14.8345 14.4936C14.3416 14.1639 13.9575 13.6956 13.7307 13.1477C13.5038 12.5999 13.4444 11.9971 13.5599 11.4155C13.6755 10.8339 13.9608 10.2996 14.3798 9.88004L15.3798 8.88004C15.9509 8.33477 16.7102 8.03052 17.4998 8.03052C18.2894 8.03052 19.0487 8.33477 19.6198 8.88004C20.1816 9.44255 20.4972 10.205 20.4972 11C20.4972 11.795 20.1816 12.5575 19.6198 13.12L18.6198 14.12C18.0577 14.6828 17.2952 14.9993 16.4998 15ZM17.4998 10C17.3682 9.99928 17.2377 10.0245 17.1159 10.0743C16.9941 10.124 16.8832 10.1974 16.7898 10.29L15.7898 11.29C15.6036 11.4774 15.499 11.7309 15.499 11.995C15.499 12.2592 15.6036 12.5127 15.7898 12.7C15.9772 12.8863 16.2306 12.9908 16.4948 12.9908C16.759 12.9908 17.0124 12.8863 17.1998 12.7L18.1998 11.7C18.3368 11.5603 18.4299 11.3834 18.4673 11.1912C18.5047 10.9991 18.485 10.8002 18.4104 10.6192C18.3359 10.4382 18.2099 10.283 18.048 10.173C17.8861 10.0629 17.6955 10.0028 17.4998 10Z" fill="#49578A"/>
<path d="M13.5 16C13.3013 16.0012 13.1069 15.9432 12.9413 15.8333C12.7758 15.7235 12.6468 15.5669 12.5706 15.3835C12.4944 15.2001 12.4746 14.9981 12.5137 14.8033C12.5527 14.6086 12.6489 14.4299 12.79 14.29L14.79 12.29C14.9813 12.1262 15.2273 12.0406 15.479 12.0503C15.7307 12.06 15.9694 12.1644 16.1475 12.3425C16.3256 12.5205 16.4299 12.7593 16.4397 13.011C16.4494 13.2626 16.3638 13.5087 16.2 13.7L14.2 15.7C14.0153 15.8884 13.7637 15.9963 13.5 16Z" fill="#49578A"/>
</svg>
