<svg width="23" height="23" viewBox="0 0 23 23" fill="none" xmlns="http://www.w3.org/2000/svg">
<path fill-rule="evenodd" clip-rule="evenodd" d="M6.77612 0.110498C7.998 0.054248 8.38758 0.041748 11.5001 0.041748C14.6126 0.041748 15.0022 0.0552897 16.223 0.110498C17.4438 0.165706 18.2772 0.360498 19.0063 0.64279C19.7699 0.931331 20.4626 1.38237 21.0355 1.96571C21.6188 2.53758 22.0688 3.22925 22.3563 3.99383C22.6397 4.723 22.8334 5.55633 22.8897 6.77508C22.9459 7.99904 22.9584 8.38862 22.9584 11.5001C22.9584 14.6126 22.9449 15.0022 22.8897 16.224C22.8345 17.4428 22.6397 18.2761 22.3563 19.0053C22.0688 19.77 21.6181 20.4628 21.0355 21.0355C20.4626 21.6188 19.7699 22.0688 19.0063 22.3563C18.2772 22.6397 17.4438 22.8334 16.2251 22.8897C15.0022 22.9459 14.6126 22.9584 11.5001 22.9584C8.38758 22.9584 7.998 22.9449 6.77612 22.8897C5.55737 22.8345 4.72404 22.6397 3.99487 22.3563C3.23021 22.0688 2.53739 21.6181 1.96466 21.0355C1.38173 20.4633 0.930618 19.7708 0.64279 19.0063C0.360498 18.2772 0.166748 17.4438 0.110498 16.2251C0.054248 15.0011 0.041748 14.6115 0.041748 11.5001C0.041748 8.38758 0.0552897 7.998 0.110498 6.77716C0.165706 5.55633 0.360498 4.723 0.64279 3.99383C0.931043 3.22933 1.3825 2.53687 1.96571 1.96466C2.53762 1.38185 3.22974 0.930752 3.99383 0.64279C4.723 0.360498 5.55633 0.166748 6.77508 0.110498H6.77612ZM16.1303 2.173C14.922 2.11779 14.5595 2.10633 11.5001 2.10633C8.44071 2.10633 8.07821 2.11779 6.86987 2.173C5.75216 2.22404 5.14591 2.4105 4.74175 2.56779C4.20737 2.77612 3.82508 3.023 3.42404 3.42404C3.04388 3.79389 2.75131 4.24413 2.56779 4.74175C2.4105 5.14591 2.22404 5.75216 2.173 6.86987C2.11779 8.07821 2.10633 8.44071 2.10633 11.5001C2.10633 14.5595 2.11779 14.922 2.173 16.1303C2.22404 17.248 2.4105 17.8542 2.56779 18.2584C2.75112 18.7553 3.04383 19.2063 3.42404 19.5761C3.79383 19.9563 4.24487 20.249 4.74175 20.4324C5.14591 20.5897 5.75216 20.7761 6.86987 20.8272C8.07821 20.8824 8.43966 20.8938 11.5001 20.8938C14.5605 20.8938 14.922 20.8824 16.1303 20.8272C17.248 20.7761 17.8542 20.5897 18.2584 20.4324C18.7928 20.224 19.1751 19.9772 19.5761 19.5761C19.9563 19.2063 20.249 18.7553 20.4324 18.2584C20.5897 17.8542 20.7761 17.248 20.8272 16.1303C20.8824 14.922 20.8938 14.5595 20.8938 11.5001C20.8938 8.44071 20.8824 8.07821 20.8272 6.86987C20.7761 5.75216 20.5897 5.14591 20.4324 4.74175C20.224 4.20737 19.9772 3.82508 19.5761 3.42404C19.2063 3.04391 18.756 2.75134 18.2584 2.56779C17.8542 2.4105 17.248 2.22404 16.1303 2.173V2.173ZM10.0365 15.0324C10.8539 15.3726 11.764 15.4185 12.6115 15.1623C13.4589 14.906 14.1911 14.3635 14.683 13.6274C15.1749 12.8913 15.396 12.0072 15.3085 11.1262C15.221 10.2452 14.8303 9.42193 14.2032 8.79696C13.8035 8.39745 13.3201 8.09155 12.7879 7.90128C12.2558 7.711 11.688 7.64108 11.1256 7.69656C10.5632 7.75203 10.02 7.93152 9.53529 8.22209C9.05056 8.51267 8.63627 8.90711 8.32227 9.37701C8.00827 9.84691 7.80236 10.3806 7.71937 10.9396C7.63638 11.4987 7.67836 12.0691 7.84231 12.61C8.00626 13.1509 8.28808 13.6486 8.6675 14.0675C9.04691 14.4864 9.51448 14.8159 10.0365 15.0324ZM7.3355 7.3355C7.8824 6.7886 8.53166 6.35477 9.24622 6.05879C9.96079 5.76281 10.7266 5.61047 11.5001 5.61047C12.2735 5.61047 13.0394 5.76281 13.7539 6.05879C14.4685 6.35477 15.1178 6.7886 15.6647 7.3355C16.2116 7.8824 16.6454 8.53166 16.9414 9.24622C17.2374 9.96079 17.3897 10.7266 17.3897 11.5001C17.3897 12.2735 17.2374 13.0394 16.9414 13.7539C16.6454 14.4685 16.2116 15.1178 15.6647 15.6647C14.5601 16.7692 13.0621 17.3897 11.5001 17.3897C9.93806 17.3897 8.44001 16.7692 7.3355 15.6647C6.23098 14.5601 5.61047 13.0621 5.61047 11.5001C5.61047 9.93806 6.23098 8.44001 7.3355 7.3355V7.3355ZM18.6959 6.48758C18.8314 6.35974 18.9399 6.206 19.015 6.03547C19.09 5.86494 19.1301 5.68109 19.1328 5.4948C19.1355 5.30851 19.1008 5.12357 19.0308 4.95092C18.9608 4.77828 18.8568 4.62145 18.725 4.48971C18.5933 4.35796 18.4365 4.254 18.2638 4.18395C18.0912 4.11391 17.9062 4.07922 17.7199 4.08194C17.5337 4.08465 17.3498 4.12472 17.1793 4.19976C17.0087 4.27481 16.855 4.38331 16.7272 4.51883C16.4785 4.7824 16.3424 5.1325 16.3477 5.4948C16.353 5.8571 16.4992 6.20308 16.7555 6.45929C17.0117 6.7155 17.3576 6.86178 17.7199 6.86706C18.0822 6.87234 18.4323 6.73622 18.6959 6.48758V6.48758Z" fill="white"/>
</svg>
