<svg width="97" height="77" viewBox="0 0 97 77" fill="none" xmlns="http://www.w3.org/2000/svg">
<path d="M52.2461 48.9502C52.2461 43.6605 53.0599 38.5335 54.6875 33.5693C56.3965 28.5238 59.0007 23.9258 62.5 19.7754C65.9993 15.625 70.5973 11.8408 76.2939 8.42285C81.9906 5.00488 88.8672 2.19727 96.9238 0V12.9395C93.3431 14.2415 90.1693 15.5436 87.4023 16.8457C84.6354 18.1478 82.3568 19.5312 80.5664 20.9961C78.776 22.5423 77.3926 24.2513 76.416 26.123C75.4395 27.9134 74.9512 30.0293 74.9512 32.4707C74.9512 34.0983 75.3988 35.4004 76.2939 36.377C77.1891 37.3535 78.3285 38.2894 79.7119 39.1846C80.363 39.5915 81.0547 40.0391 81.7871 40.5273C82.5195 41.0156 83.2926 41.4632 84.1064 41.8701C85.6527 42.8467 87.1175 44.0674 88.501 45.5322C89.8844 46.9157 91.0238 48.7061 91.9189 50.9033C92.3258 51.9613 92.6514 53.2227 92.8955 54.6875C93.1396 56.071 93.2617 57.5765 93.2617 59.2041C93.2617 64.8193 91.512 69.0918 88.0127 72.0215C84.5947 74.9512 80.3223 76.416 75.1953 76.416C68.1152 76.416 62.5 73.9746 58.3496 69.0918C54.2806 64.1276 52.2461 57.4137 52.2461 48.9502ZM0 48.9502C0 43.6605 0.813802 38.5335 2.44141 33.5693C4.15039 28.5238 6.75456 23.9258 10.2539 19.7754C13.7533 15.625 18.3512 11.8408 24.0479 8.42285C29.7445 5.00488 36.6211 2.19727 44.6777 0V12.9395C41.0156 14.2415 37.8011 15.5436 35.0342 16.8457C32.3486 18.1478 30.1107 19.5312 28.3203 20.9961C26.5299 22.5423 25.1465 24.2513 24.1699 26.123C23.1934 27.9134 22.7051 30.0293 22.7051 32.4707C22.7051 34.0983 23.1527 35.4004 24.0479 36.377C24.943 37.3535 26.0824 38.2894 27.4658 39.1846C28.1169 39.5915 28.8086 40.0391 29.541 40.5273C30.2734 41.0156 31.0465 41.4632 31.8604 41.8701C33.4066 42.8467 34.8714 44.0674 36.2549 45.5322C37.6383 46.9157 38.7777 48.7061 39.6729 50.9033C40.0798 51.9613 40.4053 53.2227 40.6494 54.6875C40.8936 56.071 41.0156 57.5765 41.0156 59.2041C41.0156 64.8193 39.266 69.0918 35.7666 72.0215C32.3486 74.9512 28.0762 76.416 22.9492 76.416C15.8691 76.416 10.2539 73.9746 6.10352 69.0918C2.03451 64.1276 0 57.4137 0 48.9502Z" fill="#FFCB7C"/>
</svg>
