<svg width="15" height="15" viewBox="0 0 15 15" fill="none" xmlns="http://www.w3.org/2000/svg">
<path d="M14.2617 13.6626L10.6916 9.94962C11.6096 8.85844 12.1125 7.48552 12.1125 6.05624C12.1125 2.71688 9.3956 0 6.05624 0C2.71688 0 0 2.71688 0 6.05624C0 9.3956 2.71688 12.1125 6.05624 12.1125C7.30989 12.1125 8.50454 11.7344 9.52594 11.0166L13.1231 14.7578C13.2734 14.9139 13.4757 15 13.6924 15C13.8975 15 14.0921 14.9218 14.2398 14.7796C14.5537 14.4776 14.5637 13.9768 14.2617 13.6626ZM6.05624 1.57989C8.52456 1.57989 10.5326 3.58793 10.5326 6.05624C10.5326 8.52456 8.52456 10.5326 6.05624 10.5326C3.58793 10.5326 1.57989 8.52456 1.57989 6.05624C1.57989 3.58793 3.58793 1.57989 6.05624 1.57989Z" fill="#333333"/>
</svg>
