<svg width="21" height="17" viewBox="0 0 21 17" fill="none" xmlns="http://www.w3.org/2000/svg">
<path d="M20.6572 2.20802C19.9102 2.53028 19.0972 2.76222 18.2598 2.85255C19.1292 2.33604 19.7802 1.52003 20.0908 0.557627C19.275 1.04295 18.3812 1.38327 17.4492 1.56349C17.0597 1.14705 16.5886 0.815293 16.0652 0.588895C15.5418 0.362498 14.9775 0.246309 14.4072 0.247569C12.1001 0.247569 10.2446 2.11769 10.2446 4.41261C10.2446 4.73487 10.2837 5.05714 10.3472 5.3672C6.89258 5.18653 3.81152 3.53614 1.76318 1.00929C1.38995 1.64678 1.19437 2.37263 1.19678 3.11134C1.19678 4.55665 1.93164 5.83106 3.05225 6.58058C2.39186 6.55457 1.74693 6.37305 1.16992 6.05079V6.10206C1.16992 8.12599 2.60059 9.80323 4.50732 10.189C4.14931 10.282 3.78102 10.3295 3.41113 10.3306C3.14014 10.3306 2.88379 10.3037 2.625 10.2671C3.15234 11.9175 4.68799 13.1162 6.5166 13.1553C5.08594 14.2759 3.29395 14.9351 1.34814 14.9351C0.999024 14.9351 0.676758 14.9229 0.342285 14.8838C2.18799 16.0679 4.37793 16.7515 6.73633 16.7515C14.3926 16.7515 18.582 10.4087 18.582 4.90333C18.582 4.72267 18.582 4.542 18.5698 4.36134C19.3804 3.76808 20.0908 3.03321 20.6572 2.20802Z" fill="white"/>
</svg>
